<svg width="140" height="47" viewBox="0 0 140 47" fill="none" xmlns="http://www.w3.org/2000/svg">
<path d="M65.741 0.5354C68.0383 0.5354 69.7765 1.13513 70.9556 2.33458C72.1551 3.51371 72.7548 5.2519 72.7548 7.54916V14.8679C72.7548 17.1651 72.1551 18.9135 70.9556 20.1129C69.7765 21.2921 68.0383 21.8816 65.741 21.8816H53.8481V0.5354H65.741ZM67.2658 7.54916C67.2658 5.71948 66.3509 4.80464 64.5213 4.80464H59.3372V17.6124H64.5213C66.3509 17.6124 67.2658 16.6975 67.2658 14.8679V7.54916Z" fill="white"/>
<path d="M79.5994 21.8816H73.653L81.734 0.5354H87.8329L95.914 21.8816H89.9676L88.5953 18.0698H80.9717L79.5994 21.8816ZM82.3439 14.1055H87.223L84.7835 6.93927L82.3439 14.1055Z" fill="white"/>
<path d="M98.3524 0.5354H111.16C113.295 0.5354 114.84 1.02331 115.795 1.99914C116.771 2.95464 117.259 4.4997 117.259 6.63432V9.37883C117.259 11.0662 116.974 12.3775 116.405 13.3126C115.856 14.2478 114.972 14.8679 113.752 15.1728L117.564 21.8816H111.618L108.111 15.4777H103.841V21.8816H98.3524V0.5354ZM111.77 6.63432C111.77 5.41454 111.16 4.80464 109.94 4.80464H103.841V11.2085H109.94C111.16 11.2085 111.77 10.5986 111.77 9.37883V6.63432Z" fill="white"/>
<path d="M126.704 21.8816H121.215V0.5354H126.704V8.92141H129.449L134.206 0.5354H140L134.023 11.056L139.969 21.8816H134.175L129.449 13.1907H126.704V21.8816Z" fill="white"/>
<path d="M59.3372 41.8218H70.4677V46.0911H53.8481V24.7448H59.3372V41.8218Z" fill="white"/>
<path d="M77.3361 46.0911H71.3897L79.4707 24.7448H85.5697L93.6507 46.0911H87.7043L86.332 42.2792H78.7084L77.3361 46.0911ZM80.0806 38.3149H84.9598L82.5202 31.1487L80.0806 38.3149Z" fill="white"/>
<path d="M114.691 46.0911H108.897L101.578 33.2833V46.0911H96.0891V24.7448H101.883L109.202 37.5526V24.7448H114.691V46.0911Z" fill="white"/>
<path d="M136.204 46.0911H119.279V24.7448H136.204V29.0141H124.768V33.1309H133.764V37.4001H124.768V41.8218H136.204V46.0911Z" fill="white"/>
<path d="M22.7592 33.9488V28.6116C22.7592 24.302 26.2528 20.8084 30.5623 20.8084C34.8719 20.8084 38.3655 24.302 38.3655 28.6116V34.6222L46.8189 44.2027V23.4095C46.8189 10.4808 36.3381 0 23.4095 0C10.4808 0 0 10.4808 0 23.4095V44.7296L22.7592 33.9488Z" fill="white"/>
<path d="M3.03809 46.1687H45.0843L36.4779 36.4148H23.63L3.03809 46.1687Z" fill="white"/>
</svg>
